<svg xmlns="http://www.w3.org/2000/svg" width="340" height="200" viewBox="0 0 340 200"><style>* { font-family: "Segoe UI", Ubuntu, "Helvetica Neue", Sans-Serif }</style><rect x="1" y="1" rx="5" ry="5" height="99%" width="99.4%" stroke="#e4e2e2" stroke-width="1" fill="#ffffff"/><text x="30" y="35" style="font-size: 18px; fill: #586e75;">Commits per Day</text><text x="35" y="62.0" text-anchor="end" fill="#586e75" font-size="12">Mon</text><rect x="45" y="50.0" width="173" height="14" rx="3" fill="#586e75"/><text x="226" y="62.0" fill="#586e75" font-size="11">202</text><text x="35" y="83.0" text-anchor="end" fill="#586e75" font-size="12">Tue</text><rect x="45" y="71.0" width="150" height="14" rx="3" fill="#586e75"/><text x="203" y="83.0" fill="#586e75" font-size="11">175</text><text x="35" y="104.0" text-anchor="end" fill="#586e75" font-size="12">Wed</text><rect x="45" y="92.0" width="235" height="14" rx="3" fill="#586e75"/><text x="288" y="104.0" fill="#586e75" font-size="11">274</text><text x="35" y="125.0" text-anchor="end" fill="#586e75" font-size="12">Thu</text><rect x="45" y="113.0" width="228" height="14" rx="3" fill="#586e75"/><text x="281" y="125.0" fill="#586e75" font-size="11">267</text><text x="35" y="146.0" text-anchor="end" fill="#586e75" font-size="12">Fri</text><rect x="45" y="134.0" width="144" height="14" rx="3" fill="#586e75"/><text x="197" y="146.0" fill="#586e75" font-size="11">169</text><text x="35" y="167.0" text-anchor="end" fill="#586e75" font-size="12">Sat</text><rect x="45" y="155.0" width="229" height="14" rx="3" fill="#586e75"/><text x="282" y="167.0" fill="#586e75" font-size="11">268</text><text x="35" y="188.0" text-anchor="end" fill="#586e75" font-size="12">Sun</text><rect x="45" y="176.0" width="96" height="14" rx="3" fill="#586e75"/><text x="149" y="188.0" fill="#586e75" font-size="11">113</text></svg>